<?xml version="1.0" encoding="utf-8"?>
<!-- Generator: Adobe Illustrator 19.0.0, SVG Export Plug-In . SVG Version: 6.00 Build 0)  -->
<svg version="1.1" id="layer" xmlns="http://www.w3.org/2000/svg" xmlns:xlink="http://www.w3.org/1999/xlink" x="0px" y="0px"
	 viewBox="-153 -46 652 652" style="enable-background:new -153 -46 652 652;" xml:space="preserve">
<path d="M-98.3,318.6c22.1,0,33.6-13.1,33.6-36v-19H-86v20.5c0,10.2-4.5,13.9-11.7,13.9c-7.2,0-11.7-3.7-11.7-13.9l0.1-77.4
	c0-10.2,4.5-14.1,11.7-14.1s11.7,3.9,11.7,14.1v15.3h21.3v-13.9c0-22.9-11.4-36-33.5-36s-33.6,13.1-33.6,36l-0.1,74.5
	C-131.9,305.5-120.4,318.6-98.3,318.6z M-32.4,291.1h27.6l3.9,26h22.7L-1,173.8h-32.9L-57,317h20.7L-32.4,291.1z M-18.6,199.2
	l10.8,72.5h-21.7L-18.6,199.2z M51.8,215.8l16.7,101.3h21.3l15.6-102.7l-0.1,102.7h21.3l0.1-143.3H95.4L80,275.6L63.5,173.8H32.2
	L32,317.1h19.6L51.8,215.8z M175.5,319.1c22.1,0,33.6-13.1,33.6-36l0.1-109.1h-21.3l-0.1,110.5c0,10.2-4.5,13.9-11.7,13.9
	s-11.7-3.7-11.7-13.9l0.1-110.5H142L142,283.1C141.9,305.9,153.4,319,175.5,319.1z M244.5,213.5l27.9,103.8h23.1l0.1-143.3h-20.1
	l-0.1,85.7l-23.1-85.7h-28.2l-0.1,143.3h20.3L244.5,213.5z M381,282l0.1-72.4c0-22.9-11-35.4-33.5-35.4l-35.6,0l-0.1,143.3l35.6,0
	C369.9,317.4,381,304.9,381,282z M334.3,296.9l0.1-102.3h12.7c7.2,0,11.5,3.7,11.4,13.9l-0.1,74.5c0,10.2-4.3,13.9-11.5,13.9
	L334.3,296.9z M413.9,291.4h27.6l3.9,26h22.7l-22.8-143.3h-32.9l-23,143.2H410L413.9,291.4z M427.7,199.6l10.8,72.5h-21.7
	L427.7,199.6z M-131.9,339.7h600v37.9h-600V339.7z M-131.9,339.7h600v37.9h-600V339.7z"/>
</svg>
